<svg width="30" height="23" viewBox="0 0 30 23" fill="none" xmlns="http://www.w3.org/2000/svg">
<path fill-rule="evenodd" clip-rule="evenodd" d="M8.807 14.08C9.83003 14.08 10.657 14.1922 11.5049 14.4204L11.8242 14.5115C12.2705 14.6456 12.5236 15.116 12.3895 15.5623C12.3677 15.635 12.3362 15.7042 12.296 15.7682L12.208 15.8859C11.4005 16.8744 10.8811 17.9606 10.5111 19.2303L10.4134 19.5908L10.3671 19.8048C10.3169 20.0968 10.3 20.3026 10.3 20.5088C10.3 20.6245 10.3052 20.739 10.3154 20.852L10.3344 21.0205C10.4038 21.5321 10.0453 22.0032 9.53362 22.0726C9.49193 22.0782 9.4499 22.0811 9.40783 22.0811L1.57116 22.08C0.70343 22.08 -2.00165e-06 21.3765 -2.00165e-06 20.5088C-2.00165e-06 20.4228 0.00705245 20.3371 0.0210553 20.2524L0.0472575 20.1263C0.919116 16.6524 4.19088 14.08 8.807 14.08ZM21.307 14.08C25.8205 14.08 29.0295 16.4675 29.8695 19.9785L29.9231 20.2196C30.0958 21.0567 29.5573 21.8753 28.7202 22.048C28.6173 22.0693 28.5125 22.08 28.4074 22.08H14.0712C13.2034 22.08 12.5 21.3765 12.5 20.5088C12.5 20.4228 12.5071 20.3371 12.5211 20.2524L12.5473 20.1263C13.4191 16.6524 16.6909 14.08 21.307 14.08ZM10.1006 0.171402C11.7558 0.567949 13.3278 1.9005 13.2356 5.03012L13.2226 5.31961C13.1775 5.38885 13.7951 5.67167 13.7951 6.58207C13.7951 7.18901 13.6043 7.60211 13.2226 7.82137C12.523 10.871 11.0658 12.3959 8.85072 12.3959C6.63568 12.3959 5.05055 10.871 4.09531 7.82137C3.73644 7.66406 3.557 7.25096 3.557 6.58207C3.557 5.91318 3.73644 5.49236 4.09531 5.31961C4.1335 2.79055 4.70971 1.34686 5.82394 0.988528C6.26623 0.847171 6.68469 0.847171 7.07932 0.988528C7.47843 0.0568164 8.48554 -0.215559 10.1006 0.171402ZM26.3033 2.62905C27.4137 4.53957 27.6199 6.87323 26.9217 9.63003C26.871 9.9163 27.0539 10.1461 27.4703 10.3195L27.5248 10.3402L27.5932 10.3629C27.7475 10.4112 27.8335 10.5754 27.7852 10.7298C27.7714 10.7736 27.7477 10.8133 27.7162 10.8458L27.6635 10.889C26.976 11.3286 24.9925 11.3611 23.8417 11.1334C23.081 11.9452 22.2497 12.3511 21.3476 12.3511C20.4454 12.3511 19.6049 11.9452 18.8259 11.1334C16.6466 10.9594 15.557 9.32661 15.557 6.23488C15.557 3.4044 16.694 1.54413 18.968 0.654072C19.36 0.500619 19.7905 0.474797 20.1981 0.580276L20.4998 0.658366C22.6104 -0.657644 24.5449 -0.000747645 26.3033 2.62905Z" fill="currentColor"/>
</svg>
