<svg width="28" height="28" viewBox="0 0 28 28" fill="none" xmlns="http://www.w3.org/2000/svg">
<path fill-rule="evenodd" clip-rule="evenodd" d="M16.576 5.63498C17.1049 5.79831 17.6104 6.00831 18.0927 6.26498L20.2312 4.98165C20.4542 4.8479 20.7154 4.79248 20.9735 4.82419C21.2316 4.85589 21.4717 4.97291 21.6557 5.15665L22.8433 6.34431C23.0271 6.5283 23.1441 6.76839 23.1758 7.02647C23.2075 7.28455 23.1521 7.54583 23.0183 7.76881L21.735 9.90731C21.9917 10.3895 22.2017 10.8951 22.365 11.424L24.7835 12.0295C25.0358 12.0927 25.2597 12.2384 25.4197 12.4434C25.5797 12.6484 25.6667 12.9011 25.6667 13.1611V14.8388C25.6667 15.0989 25.5797 15.3515 25.4197 15.5566C25.2597 15.7616 25.0358 15.9073 24.7835 15.9705L22.365 16.576C22.2017 17.1049 21.9917 17.6104 21.735 18.0926L23.0183 20.2311C23.1521 20.4541 23.2075 20.7154 23.1758 20.9735C23.1441 21.2316 23.0271 21.4717 22.8433 21.6556L21.6557 22.8433C21.4717 23.0271 21.2316 23.1441 20.9735 23.1758C20.7154 23.2075 20.4542 23.1521 20.2312 23.0183L18.0927 21.735C17.6104 21.9916 17.1049 22.2016 16.576 22.365L15.9705 24.7835C15.9073 25.0358 15.7616 25.2597 15.5566 25.4197C15.3515 25.5797 15.0989 25.6666 14.8388 25.6666H13.1612C12.9011 25.6666 12.6485 25.5797 12.4434 25.4197C12.2384 25.2597 12.0927 25.0358 12.0295 24.7835L11.424 22.365C10.8998 22.203 10.392 21.9921 9.90733 21.735L7.76883 23.0183C7.54585 23.1521 7.28457 23.2075 7.02649 23.1758C6.76841 23.1441 6.52832 23.0271 6.34433 22.8433L5.15667 21.6556C4.97293 21.4717 4.85591 21.2316 4.82421 20.9735C4.7925 20.7154 4.84792 20.4541 4.98167 20.2311L6.265 18.0926C6.00791 17.608 5.79699 17.1002 5.635 16.576L3.2165 15.9705C2.96441 15.9073 2.74061 15.7618 2.58062 15.557C2.42063 15.3522 2.3336 15.0999 2.33333 14.84V13.1623C2.33334 12.9022 2.42025 12.6496 2.58026 12.4446C2.74028 12.2395 2.96421 12.0938 3.2165 12.0306L5.635 11.4251C5.79833 10.8963 6.00833 10.3907 6.265 9.90848L4.98167 7.76998C4.84792 7.54699 4.7925 7.28572 4.82421 7.02764C4.85591 6.76956 4.97293 6.52946 5.15667 6.34548L6.34433 5.15665C6.52832 4.97291 6.76841 4.85589 7.02649 4.82419C7.28457 4.79248 7.54585 4.8479 7.76883 4.98165L9.90733 6.26498C10.3896 6.00831 10.8951 5.79831 11.424 5.63498L12.0295 3.21648C12.0927 2.96439 12.2382 2.74059 12.443 2.5806C12.6478 2.42061 12.9001 2.33358 13.16 2.33331H14.8377C15.0978 2.33332 15.3504 2.42023 15.5554 2.58024C15.7604 2.74026 15.9061 2.96419 15.9693 3.21648L16.576 5.63498ZM14 18.6666C15.2377 18.6666 16.4247 18.175 17.2998 17.2998C18.175 16.4246 18.6667 15.2377 18.6667 14C18.6667 12.7623 18.175 11.5753 17.2998 10.7001C16.4247 9.82498 15.2377 9.33331 14 9.33331C12.7623 9.33331 11.5753 9.82498 10.7002 10.7001C9.825 11.5753 9.33333 12.7623 9.33333 14C9.33333 15.2377 9.825 16.4246 10.7002 17.2998C11.5753 18.175 12.7623 18.6666 14 18.6666Z" fill="currentColor"/>
</svg>
